<svg width="36" height="47" viewBox="0 0 36 47" fill="none" xmlns="http://www.w3.org/2000/svg">
<path d="M16.184 32.072H16.088C15.288 33.32 14.216 34.216 12.872 34.76C11.56 35.304 10.168 35.576 8.696 35.576C7.608 35.576 6.552 35.416 5.528 35.096C4.536 34.808 3.656 34.36 2.888 33.752C2.12 33.144 1.512 32.392 1.064 31.496C0.616 30.6 0.392 29.56 0.392 28.376C0.392 27.032 0.632 25.896 1.112 24.968C1.624 24.04 2.296 23.272 3.128 22.664C3.992 22.056 4.968 21.592 6.056 21.272C7.144 20.92 8.264 20.664 9.416 20.504C10.6 20.344 11.768 20.248 12.92 20.216C14.104 20.184 15.192 20.168 16.184 20.168C16.184 18.888 15.72 17.88 14.792 17.144C13.896 16.376 12.824 15.992 11.576 15.992C10.392 15.992 9.304 16.248 8.312 16.76C7.352 17.24 6.488 17.912 5.72 18.776L1.88 14.84C3.224 13.592 4.792 12.664 6.584 12.056C8.376 11.416 10.232 11.096 12.152 11.096C14.264 11.096 15.992 11.368 17.336 11.912C18.712 12.424 19.8 13.192 20.6 14.216C21.432 15.24 22.008 16.504 22.328 18.008C22.648 19.48 22.808 21.192 22.808 23.144V35H16.184V32.072ZM14.408 24.776C13.864 24.776 13.176 24.808 12.344 24.872C11.544 24.904 10.76 25.032 9.992 25.256C9.256 25.48 8.616 25.816 8.072 26.264C7.56 26.712 7.304 27.336 7.304 28.136C7.304 29 7.672 29.64 8.408 30.056C9.144 30.472 9.912 30.68 10.712 30.68C11.416 30.68 12.088 30.584 12.728 30.392C13.4 30.2 13.992 29.928 14.504 29.576C15.016 29.224 15.416 28.776 15.704 28.232C16.024 27.688 16.184 27.048 16.184 26.312V24.776H14.408ZM34.6213 36.728C34.6213 38.232 34.4773 39.576 34.1893 40.76C33.9013 41.976 33.4213 43 32.7493 43.832C32.0773 44.696 31.1813 45.352 30.0613 45.8C28.9733 46.28 27.6133 46.52 25.9813 46.52C25.4373 46.52 24.8773 46.488 24.3012 46.424C23.7252 46.392 23.1652 46.296 22.6212 46.136L23.0052 39.752C23.5812 40.04 24.2052 40.184 24.8773 40.184C25.4853 40.184 25.9653 40.024 26.3173 39.704C26.6693 39.384 26.9253 38.984 27.0853 38.504C27.2453 38.024 27.3413 37.512 27.3733 36.968C27.4053 36.424 27.4213 35.928 27.4213 35.48V11.672H34.6213V36.728ZM26.8453 4.328C26.8453 3.176 27.2453 2.2 28.0453 1.4C28.8773 0.567999 29.8693 0.151999 31.0213 0.151999C32.1733 0.151999 33.1493 0.567999 33.9493 1.4C34.7813 2.2 35.1973 3.176 35.1973 4.328C35.1973 5.48 34.7813 6.472 33.9493 7.304C33.1493 8.104 32.1733 8.504 31.0213 8.504C29.8693 8.504 28.8773 8.104 28.0453 7.304C27.2453 6.472 26.8453 5.48 26.8453 4.328Z" fill="black"/>
</svg>
