<svg width="1007" height="900" viewBox="0 0 1007 900" fill="none" xmlns="http://www.w3.org/2000/svg">
<path d="M808.715 -211.746C950.082 -260.329 1093.73 -248.566 1093.73 -248.566C1093.73 -248.566 1226.05 -248.726 1323.29 -206.941C1420.54 -165.157 1500.46 -96.7263 1478.74 8.55272C1457.01 113.832 1454 78.4455 1310.77 145.037C1167.54 211.629 1206.43 181.316 1055.2 314.412C903.97 447.509 817.371 848.77 617.683 859.362C417.994 869.954 223.254 744.548 268.399 542.359C313.543 340.17 552.125 215.806 604.163 149.413C656.201 83.0206 667.349 -163.164 808.715 -211.746Z" fill="#FF7200" fill-opacity="0.27"/>
<path d="M808.715 -211.746C950.082 -260.329 1093.73 -248.566 1093.73 -248.566C1093.73 -248.566 1226.05 -248.726 1323.29 -206.941C1420.54 -165.157 1500.46 -96.7263 1478.74 8.55272C1457.01 113.832 1454 78.4455 1310.77 145.037C1167.54 211.629 1206.43 181.316 1055.2 314.412C903.97 447.509 817.371 848.77 617.683 859.362C417.994 869.954 223.254 744.548 268.399 542.359C313.543 340.17 552.125 215.806 604.163 149.413C656.201 83.0206 667.349 -163.164 808.715 -211.746Z" fill="#FF7200" fill-opacity="0.27"/>
<path d="M900.823 -536.787C1105 -606.954 1312.47 -589.965 1312.47 -589.965C1312.47 -589.965 1503.57 -590.196 1644.02 -529.847C1784.47 -469.498 1899.9 -370.665 1868.53 -218.612C1837.15 -66.5594 1832.79 -117.667 1625.93 -21.49C1419.07 74.6872 1475.24 30.9071 1256.82 223.136C1038.4 415.365 913.324 994.901 624.917 1010.2C336.51 1025.5 55.2504 844.375 120.452 552.356C185.653 260.338 530.232 80.7208 605.39 -15.1694C680.548 -111.059 696.65 -466.62 900.823 -536.787Z" fill="#FF7200" fill-opacity="0.27"/>
<path d="M900.823 -536.787C1105 -606.954 1312.47 -589.965 1312.47 -589.965C1312.47 -589.965 1503.57 -590.196 1644.02 -529.847C1784.47 -469.498 1899.9 -370.665 1868.53 -218.612C1837.15 -66.5594 1832.79 -117.667 1625.93 -21.49C1419.07 74.6872 1475.24 30.9071 1256.82 223.136C1038.4 415.365 913.324 994.901 624.917 1010.2C336.51 1025.5 55.2504 844.375 120.452 552.356C185.653 260.338 530.232 80.7208 605.39 -15.1694C680.548 -111.059 696.65 -466.62 900.823 -536.787Z" fill="#FF7200" fill-opacity="0.27"/>
</svg>
